<!DOCTYPE svg PUBLIC "-//W3C//DTD SVG 1.1//EN" "http://www.w3.org/Graphics/SVG/1.1/DTD/svg11.dtd">
<!-- Uploaded to: SVG Repo, www.svgrepo.com, Transformed by: SVG Repo Mixer Tools -->
<svg height="128px" width="128px" version="1.1" id="Capa_1" xmlns="http://www.w3.org/2000/svg" xmlns:xlink="http://www.w3.org/1999/xlink" viewBox="0 0 266.293 266.293" xml:space="preserve" fill="#000000" stroke="#000000">
<g id="SVGRepo_bgCarrier" stroke-width="0"/>
<g id="SVGRepo_tracerCarrier" stroke-linecap="round" stroke-linejoin="round"/>
<g id="SVGRepo_iconCarrier"> <g> <path style="fill:#D4AF37;" d="M127.037,146.263L127.037,146.263c0.01-23.205-6.47-43.972-35.883-56.061V34.899H77.82v14.307 H57.633V34.899H44.517v55.304c-23.106,15.423-37.15,33.501-37.118,55.644c-0.175,0.787-0.251,1.542-0.251,2.252L7.192,253.43 c-0.131,6.722,4.295,12.908,18.034,12.854h83.154c14.7,0.252,18.798-4.579,18.81-12.854 C127.19,217.711,127.037,181.959,127.037,146.263z M44.255,247.79H16.493V141.366h27.762V247.79z"/> <path id="_237276880" style="fill:#D4AF37;" d="M44.332,0h46.452c5.072,0,9.214,4.148,9.214,9.226v9.237H77.821v14.305H57.633 V18.463H35.118V9.226C35.118,4.148,39.26,0,44.332,0L44.332,0z"/> <path id="_237278608" style="fill:#D4AF37;" d="M176.288,0h46.451c5.071,0,9.213,4.148,9.213,9.226v9.237h-22.176v14.305h-20.188 V18.463h-22.516V9.226C167.073,4.148,171.215,0,176.288,0L176.288,0z"/> <path style="fill:#D4AF37;" d="M258.993,146.263L258.993,146.263c0.011-23.205-6.471-43.972-35.883-56.061V34.899h-13.334v14.307 h-20.188V34.899h-13.115v55.304c-23.105,15.423-37.152,33.501-37.119,55.644c-0.174,0.787-0.251,1.542-0.251,2.252l0.044,105.33 c-0.131,6.722,4.295,12.908,18.033,12.854h83.154c14.701,0.252,18.801-4.579,18.811-12.854 C259.145,217.711,258.993,181.959,258.993,146.263z M176.209,247.79h-27.762V141.366h27.762V247.79z"/> </g> </g>
</svg>